<?xml version="1.0" encoding="UTF-8"?>
<svg width="1040px" height="720px" viewBox="0 0 1040 720" version="1.1" xmlns="http://www.w3.org/2000/svg" xmlns:xlink="http://www.w3.org/1999/xlink">
    <!-- Generator: Sketch 47.1 (45422) - http://www.bohemiancoding.com/sketch -->
    <title>NumPy Array</title>
    <desc>Created with Sketch.</desc>
    <defs></defs>
    <g id="NumPy-array-diagram" stroke="none" stroke-width="1" fill="none" fill-rule="evenodd">
        <g id="NumPy-Array">
            <polygon id="Page-1-Copy" fill="#344651" points="-14 747 1054 747 1054 -21 -14 -21"></polygon>
            <rect id="Rectangle" stroke="#52B1DB" stroke-width="3" opacity="0.6" x="461.5" y="167.5" width="107" height="405"></rect>
            <rect id="Rectangle" stroke="#34B3A0" stroke-width="3" transform="translate(519.000000, 373.000000) rotate(-270.000000) translate(-519.000000, -373.000000) " x="465.5" y="130.5" width="107" height="485"></rect>
            <path d="M307.3125,269.46875 C304.666653,265.802065 302.593757,261.583357 301.09375,256.8125 C299.593743,252.041643 298.84375,247.239608 298.84375,242.40625 C298.84375,232.322866 301.635389,223.083375 307.21875,214.6875 L310.9375,214.6875 C308.020819,219.625025 305.973964,224.249978 304.796875,228.5625 C303.619786,232.875022 303.03125,237.427059 303.03125,242.21875 C303.03125,251.61463 305.66664,260.697873 310.9375,269.46875 L307.3125,269.46875 Z M318.5,270.25 L318.5,214.6875 L332.5,214.6875 L332.5,217.8125 L322.75,217.8125 L322.75,267.125 L332.5,267.125 L332.5,270.25 L318.5,270.25 Z M340,270.25 L340,214.6875 L354,214.6875 L354,217.8125 L344.25,217.8125 L344.25,267.125 L354,267.125 L354,270.25 L340,270.25 Z M372.0675,262 L387.78625,237.4375 L373.03625,215.5 L377.8175,215.5 L390.34875,235.40625 L403.41125,215.5 L407.6925,215.5 L392.9425,237.1875 L408.3175,262 L403.755,262 L390.255,239.9375 L376.38,262 L372.0675,262 Z M441.28,270.59375 L443.78,254.65625 L447.81125,254.65625 L447.81125,255.9375 C446.957079,259.645852 445.53001,264.53122 443.53,270.59375 L441.28,270.59375 Z M496.93625,262 L512.655,237.4375 L497.905,215.5 L502.68625,215.5 L515.2175,235.40625 L528.28,215.5 L532.56125,215.5 L517.81125,237.1875 L533.18625,262 L528.62375,262 L515.12375,239.9375 L501.24875,262 L496.93625,262 Z M581.2175,270.59375 L583.7175,254.65625 L587.74875,254.65625 L587.74875,255.9375 C586.894579,259.645852 585.46751,264.53122 583.4675,270.59375 L581.2175,270.59375 Z M622.405,262 L638.12375,237.4375 L623.37375,215.5 L628.155,215.5 L640.68625,235.40625 L653.74875,215.5 L658.03,215.5 L643.28,237.1875 L658.655,262 L654.0925,262 L640.5925,239.9375 L626.7175,262 L622.405,262 Z M676.5925,270.25 L676.5925,267.125 L686.3425,267.125 L686.3425,217.8125 L676.5925,217.8125 L676.5925,214.6875 L690.5925,214.6875 L690.5925,270.25 L676.5925,270.25 Z M699.24875,270.59375 L701.74875,254.65625 L705.78,254.65625 L705.78,255.9375 C704.925829,259.645852 703.49876,264.53122 701.49875,270.59375 L699.24875,270.59375 Z M340.3,401.25 L340.3,345.6875 L354.3,345.6875 L354.3,348.8125 L344.55,348.8125 L344.55,398.125 L354.3,398.125 L354.3,401.25 L340.3,401.25 Z M372.2375,393 L387.95625,368.4375 L373.20625,346.5 L377.9875,346.5 L390.51875,366.40625 L403.58125,346.5 L407.8625,346.5 L393.1125,368.1875 L408.4875,393 L403.925,393 L390.425,370.9375 L376.55,393 L372.2375,393 Z M442.05,401.59375 L444.55,385.65625 L448.58125,385.65625 L448.58125,386.9375 C447.727079,390.645852 446.30001,395.53122 444.3,401.59375 L442.05,401.59375 Z M497.70625,393 L513.425,368.4375 L498.675,346.5 L503.45625,346.5 L515.9875,366.40625 L529.05,346.5 L533.33125,346.5 L518.58125,368.1875 L533.95625,393 L529.39375,393 L515.89375,370.9375 L502.01875,393 L497.70625,393 Z M581.9875,401.59375 L584.4875,385.65625 L588.51875,385.65625 L588.51875,386.9375 C587.664579,390.645852 586.23751,395.53122 584.2375,401.59375 L581.9875,401.59375 Z M623.175,393 L638.89375,368.4375 L624.14375,346.5 L628.925,346.5 L641.45625,366.40625 L654.51875,346.5 L658.8,346.5 L644.05,368.1875 L659.425,393 L654.8625,393 L641.3625,370.9375 L627.4875,393 L623.175,393 Z M677.3625,401.25 L677.3625,398.125 L687.1125,398.125 L687.1125,348.8125 L677.3625,348.8125 L677.3625,345.6875 L691.3625,345.6875 L691.3625,401.25 L677.3625,401.25 Z M700.01875,401.59375 L702.51875,385.65625 L706.55,385.65625 L706.55,386.9375 C705.695829,390.645852 704.26876,395.53122 702.26875,401.59375 L700.01875,401.59375 Z M339.6,532.25 L339.6,476.6875 L353.6,476.6875 L353.6,479.8125 L343.85,479.8125 L343.85,529.125 L353.6,529.125 L353.6,532.25 L339.6,532.25 Z M371.5375,524 L387.25625,499.4375 L372.50625,477.5 L377.2875,477.5 L389.81875,497.40625 L402.88125,477.5 L407.1625,477.5 L392.4125,499.1875 L407.7875,524 L403.225,524 L389.725,501.9375 L375.85,524 L371.5375,524 Z M441.35,532.59375 L443.85,516.65625 L447.88125,516.65625 L447.88125,517.9375 C447.027079,521.645852 445.60001,526.53122 443.6,532.59375 L441.35,532.59375 Z M497.00625,524 L512.725,499.4375 L497.975,477.5 L502.75625,477.5 L515.2875,497.40625 L528.35,477.5 L532.63125,477.5 L517.88125,499.1875 L533.25625,524 L528.69375,524 L515.19375,501.9375 L501.31875,524 L497.00625,524 Z M581.2875,532.59375 L583.7875,516.65625 L587.81875,516.65625 L587.81875,517.9375 C586.964579,521.645852 585.53751,526.53122 583.5375,532.59375 L581.2875,532.59375 Z M622.475,524 L638.19375,499.4375 L623.44375,477.5 L628.225,477.5 L640.75625,497.40625 L653.81875,477.5 L658.1,477.5 L643.35,499.1875 L658.725,524 L654.1625,524 L640.6625,501.9375 L626.7875,524 L622.475,524 Z M676.6625,532.25 L676.6625,529.125 L686.4125,529.125 L686.4125,479.8125 L676.6625,479.8125 L676.6625,476.6875 L690.6625,476.6875 L690.6625,532.25 L676.6625,532.25 Z M698.1625,532.25 L698.1625,529.125 L707.9125,529.125 L707.9125,479.8125 L698.1625,479.8125 L698.1625,476.6875 L712.1625,476.6875 L712.1625,532.25 L698.1625,532.25 Z M719.725,531.46875 C724.99586,522.677039 727.63125,513.593797 727.63125,504.21875 C727.63125,499.447893 727.037506,494.901063 725.85,490.578125 C724.662494,486.255187 722.610431,481.625025 719.69375,476.6875 L723.38125,476.6875 C729.006278,485.229209 731.81875,494.4687 731.81875,504.40625 C731.81875,509.260441 731.063549,514.057268 729.553125,518.796875 C728.042701,523.536482 725.964597,527.760398 723.31875,531.46875 L719.725,531.46875 Z" id="([[-X-,-X-,-X-],-[-X" fill="#FFFFFF"></path>
            <path d="M466.304688,141.398438 C464.589184,141.398438 463.216802,140.966801 462.1875,140.103516 C461.158198,139.24023 460.643555,138.006193 460.643555,136.401367 C460.643555,135.44954 460.848305,134.622237 461.257812,133.919434 C461.66732,133.216631 462.262203,132.646649 463.04248,132.209473 C463.822758,131.772296 464.713699,131.431967 465.715332,131.188477 C466.716965,130.944986 467.881829,130.773438 469.209961,130.673828 C470.626635,130.585286 471.678056,130.513347 472.364258,130.458008 L472.364258,128.432617 C472.364258,127.038079 472.046064,125.989424 471.409668,125.286621 C470.773272,124.583818 469.752286,124.232422 468.34668,124.232422 C466.420889,124.232422 464.622404,124.691727 462.951172,125.610352 C462.906901,125.499674 462.804526,125.258954 462.644043,124.888184 C462.48356,124.517414 462.370118,124.232423 462.303711,124.033203 C462.989912,123.590493 463.886388,123.219728 464.993164,122.920898 C466.09994,122.622069 467.184565,122.472656 468.24707,122.472656 C470.42742,122.472656 471.993485,122.940262 472.945312,123.875488 C473.89714,124.810714 474.373047,126.468087 474.373047,128.847656 L474.373047,141 L472.762695,141 C472.707356,140.745441 472.627116,140.241866 472.521973,139.489258 C472.416829,138.73665 472.364258,138.349284 472.364258,138.327148 C470.936516,140.374685 468.91668,141.398438 466.304688,141.398438 Z M466.371094,139.754883 C467.787767,139.754883 469.046707,139.337081 470.147949,138.501465 C471.249192,137.665849 471.971352,136.506518 472.314453,135.023438 L472.314453,131.918945 C470.720695,132.051758 469.918294,132.118164 469.907227,132.118164 C467.206692,132.361655 465.330734,132.804359 464.279297,133.446289 C463.227859,134.088219 462.702148,135.084303 462.702148,136.43457 C462.702148,137.541347 463.036943,138.371417 463.706543,138.924805 C464.376143,139.478193 465.264317,139.754883 466.371094,139.754883 Z M477.494141,141 L484.28418,131.786133 L477.709961,122.804688 L480.000977,122.804688 L485.313477,130.308594 L490.592773,122.804688 L492.933594,122.804688 L486.375977,131.852539 L493.066406,141 L490.858398,141 L485.330078,133.280273 L479.818359,141 L477.494141,141 Z M496.336914,141 L496.336914,122.804688 L498.412109,122.804688 L498.412109,141 L496.336914,141 Z M496.336914,119.085938 L496.336914,116.296875 L498.395508,116.296875 L498.395508,119.085938 L496.336914,119.085938 Z M508.821289,141.415039 C507.648106,141.415039 506.54688,141.27116 505.517578,140.983398 C504.488276,140.695637 503.674808,140.352541 503.077148,139.954102 L503.375977,138.227539 C505.202158,139.179367 506.950838,139.655273 508.62207,139.655273 C511.621434,139.655273 513.176432,138.54298 513.287109,136.318359 C513.287109,135.388667 512.985517,134.658206 512.382324,134.126953 C511.779131,133.5957 510.569996,133.042321 508.754883,132.466797 C507.803055,132.134764 507.277344,131.952149 507.177734,131.918945 C504.333319,131.05566 502.900065,129.522797 502.87793,127.320312 C502.87793,126.04752 503.43961,124.921392 504.562988,123.941895 C505.686366,122.962397 507.205394,122.472656 509.120117,122.472656 C511.03484,122.472656 512.833325,122.848955 514.515625,123.601562 L513.818359,125.128906 C512.113924,124.486976 510.531257,124.166016 509.070312,124.166016 C507.786452,124.166016 506.776534,124.453773 506.040527,125.029297 C505.304521,125.604821 504.936523,126.379552 504.936523,127.353516 C504.936523,128.17253 505.177244,128.800616 505.658691,129.237793 C506.140139,129.67497 507.094719,130.092771 508.522461,130.491211 C508.67741,130.535482 508.9624,130.63509 509.377441,130.790039 C509.792483,130.944988 510.022135,131.027995 510.066406,131.039062 C511.981129,131.625654 513.317542,132.320146 514.075684,133.122559 C514.833825,133.924971 515.212891,135.017897 515.212891,136.401367 C515.179687,137.995125 514.584804,139.229162 513.428223,140.103516 C512.271641,140.977869 510.736012,141.415039 508.821289,141.415039 Z M526.916992,134.525391 L526.916992,132.699219 L542.522461,132.699219 L542.522461,134.525391 L526.916992,134.525391 Z M526.900391,127.237305 L526.900391,125.37793 L542.539062,125.37793 L542.539062,127.237305 L526.900391,127.237305 Z M562.792969,139.489258 C564.486337,139.489258 565.853185,138.473806 566.893555,136.442871 C567.933924,134.411936 568.454102,131.681007 568.454102,128.25 C568.454102,124.8854 567.933924,122.204274 566.893555,120.206543 C565.853185,118.208812 564.49187,117.209961 562.80957,117.209961 C561.116202,117.209961 559.749354,118.211579 558.708984,120.214844 C557.668615,122.218109 557.153971,124.907535 557.165039,128.283203 C557.165039,131.71421 557.682449,134.439606 558.717285,136.459473 C559.752121,138.47934 561.110669,139.489258 562.792969,139.489258 Z M562.80957,141.398438 C561.415032,141.398438 560.186529,141.083011 559.124023,140.452148 C558.061518,139.821286 557.201012,138.922044 556.54248,137.754395 C555.883949,136.586745 555.39144,135.21713 555.064941,133.645508 C554.738442,132.073885 554.575195,130.30307 554.575195,128.333008 C554.575195,124.182596 555.280755,120.972993 556.691895,118.704102 C558.103034,116.43521 560.142239,115.300781 562.80957,115.300781 C565.476901,115.300781 567.505039,116.432443 568.894043,118.695801 C570.283047,120.959158 570.977539,124.171529 570.977539,128.333008 C570.977539,130.30307 570.817059,132.073885 570.496094,133.645508 C570.175129,135.21713 569.688154,136.586745 569.035156,137.754395 C568.382158,138.922044 567.529953,139.821286 566.478516,140.452148 C565.427078,141.083011 564.204109,141.398438 562.80957,141.398438 Z" id="axis-=-0" fill="#52B1DB"></path>
            <path d="M792.304688,382.398438 C790.589184,382.398438 789.216802,381.966801 788.1875,381.103516 C787.158198,380.24023 786.643555,379.006193 786.643555,377.401367 C786.643555,376.44954 786.848305,375.622237 787.257812,374.919434 C787.66732,374.216631 788.262203,373.646649 789.04248,373.209473 C789.822758,372.772296 790.713699,372.431967 791.715332,372.188477 C792.716965,371.944986 793.881829,371.773438 795.209961,371.673828 C796.626635,371.585286 797.678056,371.513347 798.364258,371.458008 L798.364258,369.432617 C798.364258,368.038079 798.046064,366.989424 797.409668,366.286621 C796.773272,365.583818 795.752286,365.232422 794.34668,365.232422 C792.420889,365.232422 790.622404,365.691727 788.951172,366.610352 C788.906901,366.499674 788.804526,366.258954 788.644043,365.888184 C788.48356,365.517414 788.370118,365.232423 788.303711,365.033203 C788.989912,364.590493 789.886388,364.219728 790.993164,363.920898 C792.09994,363.622069 793.184565,363.472656 794.24707,363.472656 C796.42742,363.472656 797.993485,363.940262 798.945312,364.875488 C799.89714,365.810714 800.373047,367.468087 800.373047,369.847656 L800.373047,382 L798.762695,382 C798.707356,381.745441 798.627116,381.241866 798.521973,380.489258 C798.416829,379.73665 798.364258,379.349284 798.364258,379.327148 C796.936516,381.374685 794.91668,382.398438 792.304688,382.398438 Z M792.371094,380.754883 C793.787767,380.754883 795.046707,380.337081 796.147949,379.501465 C797.249192,378.665849 797.971352,377.506518 798.314453,376.023438 L798.314453,372.918945 C796.720695,373.051758 795.918294,373.118164 795.907227,373.118164 C793.206692,373.361655 791.330734,373.804359 790.279297,374.446289 C789.227859,375.088219 788.702148,376.084303 788.702148,377.43457 C788.702148,378.541347 789.036943,379.371417 789.706543,379.924805 C790.376143,380.478193 791.264317,380.754883 792.371094,380.754883 Z M803.494141,382 L810.28418,372.786133 L803.709961,363.804688 L806.000977,363.804688 L811.313477,371.308594 L816.592773,363.804688 L818.933594,363.804688 L812.375977,372.852539 L819.066406,382 L816.858398,382 L811.330078,374.280273 L805.818359,382 L803.494141,382 Z M822.336914,382 L822.336914,363.804688 L824.412109,363.804688 L824.412109,382 L822.336914,382 Z M822.336914,360.085938 L822.336914,357.296875 L824.395508,357.296875 L824.395508,360.085938 L822.336914,360.085938 Z M834.821289,382.415039 C833.648106,382.415039 832.54688,382.27116 831.517578,381.983398 C830.488276,381.695637 829.674808,381.352541 829.077148,380.954102 L829.375977,379.227539 C831.202158,380.179367 832.950838,380.655273 834.62207,380.655273 C837.621434,380.655273 839.176432,379.54298 839.287109,377.318359 C839.287109,376.388667 838.985517,375.658206 838.382324,375.126953 C837.779131,374.5957 836.569996,374.042321 834.754883,373.466797 C833.803055,373.134764 833.277344,372.952149 833.177734,372.918945 C830.333319,372.05566 828.900065,370.522797 828.87793,368.320312 C828.87793,367.04752 829.43961,365.921392 830.562988,364.941895 C831.686366,363.962397 833.205394,363.472656 835.120117,363.472656 C837.03484,363.472656 838.833325,363.848955 840.515625,364.601562 L839.818359,366.128906 C838.113924,365.486976 836.531257,365.166016 835.070312,365.166016 C833.786452,365.166016 832.776534,365.453773 832.040527,366.029297 C831.304521,366.604821 830.936523,367.379552 830.936523,368.353516 C830.936523,369.17253 831.177244,369.800616 831.658691,370.237793 C832.140139,370.67497 833.094719,371.092771 834.522461,371.491211 C834.67741,371.535482 834.9624,371.63509 835.377441,371.790039 C835.792483,371.944988 836.022135,372.027995 836.066406,372.039062 C837.981129,372.625654 839.317542,373.320146 840.075684,374.122559 C840.833825,374.924971 841.212891,376.017897 841.212891,377.401367 C841.179687,378.995125 840.584804,380.229162 839.428223,381.103516 C838.271641,381.977869 836.736012,382.415039 834.821289,382.415039 Z M852.916992,375.525391 L852.916992,373.699219 L868.522461,373.699219 L868.522461,375.525391 L852.916992,375.525391 Z M852.900391,368.237305 L852.900391,366.37793 L868.539062,366.37793 L868.539062,368.237305 L852.900391,368.237305 Z M883.248047,382 L883.248047,359.488281 C882.893878,359.74284 882.332198,360.058266 881.562988,360.43457 C880.793779,360.810874 880.027348,361.131835 879.263672,361.397461 L879.263672,359.604492 C881.587902,358.530919 883.043291,357.761721 883.629883,357.296875 L885.373047,357.296875 L885.373047,382 L883.248047,382 Z" id="axis-=-1" fill="#34B3A0"></path>
        </g>
    </g>
</svg>