<?xml version="1.0" encoding="utf-8" standalone="no"?>
<!DOCTYPE svg PUBLIC "-//W3C//DTD SVG 1.1//EN"
  "http://www.w3.org/Graphics/SVG/1.1/DTD/svg11.dtd">
<!-- Created with matplotlib (http://matplotlib.org/) -->
<svg height="288pt" version="1.1" viewBox="0 0 432 288" width="432pt" xmlns="http://www.w3.org/2000/svg" xmlns:xlink="http://www.w3.org/1999/xlink">
 <defs>
  <style type="text/css">
*{stroke-linecap:butt;stroke-linejoin:round;}
  </style>
 </defs>
 <g id="figure_1">
  <g id="patch_1">
   <path d="M 0 288 
L 432 288 
L 432 0 
L 0 0 
z
" style="fill:#ffffff;"/>
  </g>
  <g id="axes_1">
   <g id="patch_2">
    <path clip-path="url(#p5956a8187d)" d="M 69.218182 252 
L 72.261818 252 
L 72.261818 251.938804 
L 69.218182 251.938804 
z
" style="fill:#1f77b4;"/>
   </g>
   <g id="patch_3">
    <path clip-path="url(#p5956a8187d)" d="M 72.261818 252 
L 75.305455 252 
L 75.305455 252 
L 72.261818 252 
z
" style="fill:#1f77b4;"/>
   </g>
   <g id="patch_4">
    <path clip-path="url(#p5956a8187d)" d="M 75.305455 252 
L 78.349091 252 
L 78.349091 251.877609 
L 75.305455 251.877609 
z
" style="fill:#1f77b4;"/>
   </g>
   <g id="patch_5">
    <path clip-path="url(#p5956a8187d)" d="M 78.349091 252 
L 81.392727 252 
L 81.392727 251.877609 
L 78.349091 251.877609 
z
" style="fill:#1f77b4;"/>
   </g>
   <g id="patch_6">
    <path clip-path="url(#p5956a8187d)" d="M 81.392727 252 
L 84.436364 252 
L 84.436364 251.938804 
L 81.392727 251.938804 
z
" style="fill:#1f77b4;"/>
   </g>
   <g id="patch_7">
    <path clip-path="url(#p5956a8187d)" d="M 84.436364 252 
L 87.48 252 
L 87.48 251.755218 
L 84.436364 251.755218 
z
" style="fill:#1f77b4;"/>
   </g>
   <g id="patch_8">
    <path clip-path="url(#p5956a8187d)" d="M 87.48 252 
L 90.523636 252 
L 90.523636 251.632827 
L 87.48 251.632827 
z
" style="fill:#1f77b4;"/>
   </g>
   <g id="patch_9">
    <path clip-path="url(#p5956a8187d)" d="M 90.523636 252 
L 93.567273 252 
L 93.567273 251.571631 
L 90.523636 251.571631 
z
" style="fill:#1f77b4;"/>
   </g>
   <g id="patch_10">
    <path clip-path="url(#p5956a8187d)" d="M 93.567273 252 
L 96.610909 252 
L 96.610909 251.510436 
L 93.567273 251.510436 
z
" style="fill:#1f77b4;"/>
   </g>
   <g id="patch_11">
    <path clip-path="url(#p5956a8187d)" d="M 96.610909 252 
L 99.654545 252 
L 99.654545 251.326849 
L 96.610909 251.326849 
z
" style="fill:#1f77b4;"/>
   </g>
   <g id="patch_12">
    <path clip-path="url(#p5956a8187d)" d="M 99.654545 252 
L 102.698182 252 
L 102.698182 251.204458 
L 99.654545 251.204458 
z
" style="fill:#1f77b4;"/>
   </g>
   <g id="patch_13">
    <path clip-path="url(#p5956a8187d)" d="M 102.698182 252 
L 105.741818 252 
L 105.741818 251.082067 
L 102.698182 251.082067 
z
" style="fill:#1f77b4;"/>
   </g>
   <g id="patch_14">
    <path clip-path="url(#p5956a8187d)" d="M 105.741818 252 
L 108.785455 252 
L 108.785455 249.919352 
L 105.741818 249.919352 
z
" style="fill:#1f77b4;"/>
   </g>
   <g id="patch_15">
    <path clip-path="url(#p5956a8187d)" d="M 108.785455 252 
L 111.829091 252 
L 111.829091 249.613374 
L 108.785455 249.613374 
z
" style="fill:#1f77b4;"/>
   </g>
   <g id="patch_16">
    <path clip-path="url(#p5956a8187d)" d="M 111.829091 252 
L 114.872727 252 
L 114.872727 248.879027 
L 111.829091 248.879027 
z
" style="fill:#1f77b4;"/>
   </g>
   <g id="patch_17">
    <path clip-path="url(#p5956a8187d)" d="M 114.872727 252 
L 117.916364 252 
L 117.916364 248.634245 
L 114.872727 248.634245 
z
" style="fill:#1f77b4;"/>
   </g>
   <g id="patch_18">
    <path clip-path="url(#p5956a8187d)" d="M 117.916364 252 
L 120.96 252 
L 120.96 248.511854 
L 117.916364 248.511854 
z
" style="fill:#1f77b4;"/>
   </g>
   <g id="patch_19">
    <path clip-path="url(#p5956a8187d)" d="M 120.96 252 
L 124.003636 252 
L 124.003636 247.104357 
L 120.96 247.104357 
z
" style="fill:#1f77b4;"/>
   </g>
   <g id="patch_20">
    <path clip-path="url(#p5956a8187d)" d="M 124.003636 252 
L 127.047273 252 
L 127.047273 245.207295 
L 124.003636 245.207295 
z
" style="fill:#1f77b4;"/>
   </g>
   <g id="patch_21">
    <path clip-path="url(#p5956a8187d)" d="M 127.047273 252 
L 130.090909 252 
L 130.090909 244.105775 
L 127.047273 244.105775 
z
" style="fill:#1f77b4;"/>
   </g>
   <g id="patch_22">
    <path clip-path="url(#p5956a8187d)" d="M 130.090909 252 
L 133.134545 252 
L 133.134545 242.820669 
L 130.090909 242.820669 
z
" style="fill:#1f77b4;"/>
   </g>
   <g id="patch_23">
    <path clip-path="url(#p5956a8187d)" d="M 133.134545 252 
L 136.178182 252 
L 136.178182 238.659372 
L 133.134545 238.659372 
z
" style="fill:#1f77b4;"/>
   </g>
   <g id="patch_24">
    <path clip-path="url(#p5956a8187d)" d="M 136.178182 252 
L 139.221818 252 
L 139.221818 236.333941 
L 136.178182 236.333941 
z
" style="fill:#1f77b4;"/>
   </g>
   <g id="patch_25">
    <path clip-path="url(#p5956a8187d)" d="M 139.221818 252 
L 142.265455 252 
L 142.265455 233.151773 
L 139.221818 233.151773 
z
" style="fill:#1f77b4;"/>
   </g>
   <g id="patch_26">
    <path clip-path="url(#p5956a8187d)" d="M 142.265455 252 
L 145.309091 252 
L 145.309091 229.724823 
L 142.265455 229.724823 
z
" style="fill:#1f77b4;"/>
   </g>
   <g id="patch_27">
    <path clip-path="url(#p5956a8187d)" d="M 145.309091 252 
L 148.352727 252 
L 148.352727 225.624721 
L 145.309091 225.624721 
z
" style="fill:#1f77b4;"/>
   </g>
   <g id="patch_28">
    <path clip-path="url(#p5956a8187d)" d="M 148.352727 252 
L 151.396364 252 
L 151.396364 220.300709 
L 148.352727 220.300709 
z
" style="fill:#1f77b4;"/>
   </g>
   <g id="patch_29">
    <path clip-path="url(#p5956a8187d)" d="M 151.396364 252 
L 154.44 252 
L 154.44 215.649848 
L 151.396364 215.649848 
z
" style="fill:#1f77b4;"/>
   </g>
   <g id="patch_30">
    <path clip-path="url(#p5956a8187d)" d="M 154.44 252 
L 157.483636 252 
L 157.483636 208.48997 
L 154.44 208.48997 
z
" style="fill:#1f77b4;"/>
   </g>
   <g id="patch_31">
    <path clip-path="url(#p5956a8187d)" d="M 157.483636 252 
L 160.527273 252 
L 160.527273 201.75846 
L 157.483636 201.75846 
z
" style="fill:#1f77b4;"/>
   </g>
   <g id="patch_32">
    <path clip-path="url(#p5956a8187d)" d="M 160.527273 252 
L 163.570909 252 
L 163.570909 194.537386 
L 160.527273 194.537386 
z
" style="fill:#1f77b4;"/>
   </g>
   <g id="patch_33">
    <path clip-path="url(#p5956a8187d)" d="M 163.570909 252 
L 166.614545 252 
L 166.614545 187.805876 
L 163.570909 187.805876 
z
" style="fill:#1f77b4;"/>
   </g>
   <g id="patch_34">
    <path clip-path="url(#p5956a8187d)" d="M 166.614545 252 
L 169.658182 252 
L 169.658182 173.608511 
L 166.614545 173.608511 
z
" style="fill:#1f77b4;"/>
   </g>
   <g id="patch_35">
    <path clip-path="url(#p5956a8187d)" d="M 169.658182 252 
L 172.701818 252 
L 172.701818 170.303951 
L 169.658182 170.303951 
z
" style="fill:#1f77b4;"/>
   </g>
   <g id="patch_36">
    <path clip-path="url(#p5956a8187d)" d="M 172.701818 252 
L 175.745455 252 
L 175.745455 156.412563 
L 172.701818 156.412563 
z
" style="fill:#1f77b4;"/>
   </g>
   <g id="patch_37">
    <path clip-path="url(#p5956a8187d)" d="M 175.745455 252 
L 178.789091 252 
L 178.789091 147.722796 
L 175.745455 147.722796 
z
" style="fill:#1f77b4;"/>
   </g>
   <g id="patch_38">
    <path clip-path="url(#p5956a8187d)" d="M 178.789091 252 
L 181.832727 252 
L 181.832727 131.995542 
L 178.789091 131.995542 
z
" style="fill:#1f77b4;"/>
   </g>
   <g id="patch_39">
    <path clip-path="url(#p5956a8187d)" d="M 181.832727 252 
L 184.876364 252 
L 184.876364 123.795339 
L 181.832727 123.795339 
z
" style="fill:#1f77b4;"/>
   </g>
   <g id="patch_40">
    <path clip-path="url(#p5956a8187d)" d="M 184.876364 252 
L 187.92 252 
L 187.92 117.308612 
L 184.876364 117.308612 
z
" style="fill:#1f77b4;"/>
   </g>
   <g id="patch_41">
    <path clip-path="url(#p5956a8187d)" d="M 187.92 252 
L 190.963636 252 
L 190.963636 100.847011 
L 187.92 100.847011 
z
" style="fill:#1f77b4;"/>
   </g>
   <g id="patch_42">
    <path clip-path="url(#p5956a8187d)" d="M 190.963636 252 
L 194.007273 252 
L 194.007273 97.726039 
L 190.963636 97.726039 
z
" style="fill:#1f77b4;"/>
   </g>
   <g id="patch_43">
    <path clip-path="url(#p5956a8187d)" d="M 194.007273 252 
L 197.050909 252 
L 197.050909 82.365957 
L 194.007273 82.365957 
z
" style="fill:#1f77b4;"/>
   </g>
   <g id="patch_44">
    <path clip-path="url(#p5956a8187d)" d="M 197.050909 252 
L 200.094545 252 
L 200.094545 77.715096 
L 197.050909 77.715096 
z
" style="fill:#1f77b4;"/>
   </g>
   <g id="patch_45">
    <path clip-path="url(#p5956a8187d)" d="M 200.094545 252 
L 203.138182 252 
L 203.138182 65.843161 
L 200.094545 65.843161 
z
" style="fill:#1f77b4;"/>
   </g>
   <g id="patch_46">
    <path clip-path="url(#p5956a8187d)" d="M 203.138182 252 
L 206.181818 252 
L 206.181818 52.808511 
L 203.138182 52.808511 
z
" style="fill:#1f77b4;"/>
   </g>
   <g id="patch_47">
    <path clip-path="url(#p5956a8187d)" d="M 206.181818 252 
L 209.225455 252 
L 209.225455 49.014387 
L 206.181818 49.014387 
z
" style="fill:#1f77b4;"/>
   </g>
   <g id="patch_48">
    <path clip-path="url(#p5956a8187d)" d="M 209.225455 252 
L 212.269091 252 
L 212.269091 47.974063 
L 209.225455 47.974063 
z
" style="fill:#1f77b4;"/>
   </g>
   <g id="patch_49">
    <path clip-path="url(#p5956a8187d)" d="M 212.269091 252 
L 215.312727 252 
L 215.312727 47.239716 
L 212.269091 47.239716 
z
" style="fill:#1f77b4;"/>
   </g>
   <g id="patch_50">
    <path clip-path="url(#p5956a8187d)" d="M 215.312727 252 
L 218.356364 252 
L 218.356364 44.914286 
L 215.312727 44.914286 
z
" style="fill:#1f77b4;"/>
   </g>
   <g id="patch_51">
    <path clip-path="url(#p5956a8187d)" d="M 218.356364 252 
L 221.4 252 
L 221.4 46.750152 
L 218.356364 46.750152 
z
" style="fill:#1f77b4;"/>
   </g>
   <g id="patch_52">
    <path clip-path="url(#p5956a8187d)" d="M 221.4 252 
L 224.443636 252 
L 224.443636 45.771023 
L 221.4 45.771023 
z
" style="fill:#1f77b4;"/>
   </g>
   <g id="patch_53">
    <path clip-path="url(#p5956a8187d)" d="M 224.443636 252 
L 227.487273 252 
L 227.487273 49.687538 
L 224.443636 49.687538 
z
" style="fill:#1f77b4;"/>
   </g>
   <g id="patch_54">
    <path clip-path="url(#p5956a8187d)" d="M 227.487273 252 
L 230.530909 252 
L 230.530909 57.031003 
L 227.487273 57.031003 
z
" style="fill:#1f77b4;"/>
   </g>
   <g id="patch_55">
    <path clip-path="url(#p5956a8187d)" d="M 230.530909 252 
L 233.574545 252 
L 233.574545 58.928065 
L 230.530909 58.928065 
z
" style="fill:#1f77b4;"/>
   </g>
   <g id="patch_56">
    <path clip-path="url(#p5956a8187d)" d="M 233.574545 252 
L 236.618182 252 
L 236.618182 62.905775 
L 233.574545 62.905775 
z
" style="fill:#1f77b4;"/>
   </g>
   <g id="patch_57">
    <path clip-path="url(#p5956a8187d)" d="M 236.618182 252 
L 239.661818 252 
L 239.661818 76.98075 
L 236.618182 76.98075 
z
" style="fill:#1f77b4;"/>
   </g>
   <g id="patch_58">
    <path clip-path="url(#p5956a8187d)" d="M 239.661818 252 
L 242.705455 252 
L 242.705455 76.185208 
L 239.661818 76.185208 
z
" style="fill:#1f77b4;"/>
   </g>
   <g id="patch_59">
    <path clip-path="url(#p5956a8187d)" d="M 242.705455 252 
L 245.749091 252 
L 245.749091 92.524417 
L 242.705455 92.524417 
z
" style="fill:#1f77b4;"/>
   </g>
   <g id="patch_60">
    <path clip-path="url(#p5956a8187d)" d="M 245.749091 252 
L 248.792727 252 
L 248.792727 102.254509 
L 245.749091 102.254509 
z
" style="fill:#1f77b4;"/>
   </g>
   <g id="patch_61">
    <path clip-path="url(#p5956a8187d)" d="M 248.792727 252 
L 251.836364 252 
L 251.836364 110.33232 
L 248.792727 110.33232 
z
" style="fill:#1f77b4;"/>
   </g>
   <g id="patch_62">
    <path clip-path="url(#p5956a8187d)" d="M 251.836364 252 
L 254.88 252 
L 254.88 114.004053 
L 251.836364 114.004053 
z
" style="fill:#1f77b4;"/>
   </g>
   <g id="patch_63">
    <path clip-path="url(#p5956a8187d)" d="M 254.88 252 
L 257.923636 252 
L 257.923636 130.09848 
L 254.88 130.09848 
z
" style="fill:#1f77b4;"/>
   </g>
   <g id="patch_64">
    <path clip-path="url(#p5956a8187d)" d="M 257.923636 252 
L 260.967273 252 
L 260.967273 140.991287 
L 257.923636 140.991287 
z
" style="fill:#1f77b4;"/>
   </g>
   <g id="patch_65">
    <path clip-path="url(#p5956a8187d)" d="M 260.967273 252 
L 264.010909 252 
L 264.010909 152.557244 
L 260.967273 152.557244 
z
" style="fill:#1f77b4;"/>
   </g>
   <g id="patch_66">
    <path clip-path="url(#p5956a8187d)" d="M 264.010909 252 
L 267.054545 252 
L 267.054545 161.430598 
L 264.010909 161.430598 
z
" style="fill:#1f77b4;"/>
   </g>
   <g id="patch_67">
    <path clip-path="url(#p5956a8187d)" d="M 267.054545 252 
L 270.098182 252 
L 270.098182 170.059169 
L 267.054545 170.059169 
z
" style="fill:#1f77b4;"/>
   </g>
   <g id="patch_68">
    <path clip-path="url(#p5956a8187d)" d="M 270.098182 252 
L 273.141818 252 
L 273.141818 184.440122 
L 270.098182 184.440122 
z
" style="fill:#1f77b4;"/>
   </g>
   <g id="patch_69">
    <path clip-path="url(#p5956a8187d)" d="M 273.141818 252 
L 276.185455 252 
L 276.185455 188.356636 
L 273.141818 188.356636 
z
" style="fill:#1f77b4;"/>
   </g>
   <g id="patch_70">
    <path clip-path="url(#p5956a8187d)" d="M 276.185455 252 
L 279.229091 252 
L 279.229091 197.474772 
L 276.185455 197.474772 
z
" style="fill:#1f77b4;"/>
   </g>
   <g id="patch_71">
    <path clip-path="url(#p5956a8187d)" d="M 279.229091 252 
L 282.272727 252 
L 282.272727 206.409321 
L 279.229091 206.409321 
z
" style="fill:#1f77b4;"/>
   </g>
   <g id="patch_72">
    <path clip-path="url(#p5956a8187d)" d="M 282.272727 252 
L 285.316364 252 
L 285.316364 212.957244 
L 282.272727 212.957244 
z
" style="fill:#1f77b4;"/>
   </g>
   <g id="patch_73">
    <path clip-path="url(#p5956a8187d)" d="M 285.316364 252 
L 288.36 252 
L 288.36 216.078217 
L 285.316364 216.078217 
z
" style="fill:#1f77b4;"/>
   </g>
   <g id="patch_74">
    <path clip-path="url(#p5956a8187d)" d="M 288.36 252 
L 291.403636 252 
L 291.403636 223.666464 
L 288.36 223.666464 
z
" style="fill:#1f77b4;"/>
   </g>
   <g id="patch_75">
    <path clip-path="url(#p5956a8187d)" d="M 291.403636 252 
L 294.447273 252 
L 294.447273 227.15461 
L 291.403636 227.15461 
z
" style="fill:#1f77b4;"/>
   </g>
   <g id="patch_76">
    <path clip-path="url(#p5956a8187d)" d="M 294.447273 252 
L 297.490909 252 
L 297.490909 231.866667 
L 294.447273 231.866667 
z
" style="fill:#1f77b4;"/>
   </g>
   <g id="patch_77">
    <path clip-path="url(#p5956a8187d)" d="M 297.490909 252 
L 300.534545 252 
L 300.534545 234.375684 
L 297.490909 234.375684 
z
" style="fill:#1f77b4;"/>
   </g>
   <g id="patch_78">
    <path clip-path="url(#p5956a8187d)" d="M 300.534545 252 
L 303.578182 252 
L 303.578182 239.638501 
L 300.534545 239.638501 
z
" style="fill:#1f77b4;"/>
   </g>
   <g id="patch_79">
    <path clip-path="url(#p5956a8187d)" d="M 303.578182 252 
L 306.621818 252 
L 306.621818 240.923607 
L 303.578182 240.923607 
z
" style="fill:#1f77b4;"/>
   </g>
   <g id="patch_80">
    <path clip-path="url(#p5956a8187d)" d="M 306.621818 252 
L 309.665455 252 
L 309.665455 243.249037 
L 306.621818 243.249037 
z
" style="fill:#1f77b4;"/>
   </g>
   <g id="patch_81">
    <path clip-path="url(#p5956a8187d)" d="M 309.665455 252 
L 312.709091 252 
L 312.709091 245.26849 
L 309.665455 245.26849 
z
" style="fill:#1f77b4;"/>
   </g>
   <g id="patch_82">
    <path clip-path="url(#p5956a8187d)" d="M 312.709091 252 
L 315.752727 252 
L 315.752727 246.859574 
L 312.709091 246.859574 
z
" style="fill:#1f77b4;"/>
   </g>
   <g id="patch_83">
    <path clip-path="url(#p5956a8187d)" d="M 315.752727 252 
L 318.796364 252 
L 318.796364 246.981966 
L 315.752727 246.981966 
z
" style="fill:#1f77b4;"/>
   </g>
   <g id="patch_84">
    <path clip-path="url(#p5956a8187d)" d="M 318.796364 252 
L 321.84 252 
L 321.84 248.756636 
L 318.796364 248.756636 
z
" style="fill:#1f77b4;"/>
   </g>
   <g id="patch_85">
    <path clip-path="url(#p5956a8187d)" d="M 321.84 252 
L 324.883636 252 
L 324.883636 249.674569 
L 321.84 249.674569 
z
" style="fill:#1f77b4;"/>
   </g>
   <g id="patch_86">
    <path clip-path="url(#p5956a8187d)" d="M 324.883636 252 
L 327.927273 252 
L 327.927273 249.185005 
L 324.883636 249.185005 
z
" style="fill:#1f77b4;"/>
   </g>
   <g id="patch_87">
    <path clip-path="url(#p5956a8187d)" d="M 327.927273 252 
L 330.970909 252 
L 330.970909 250.653698 
L 327.927273 250.653698 
z
" style="fill:#1f77b4;"/>
   </g>
   <g id="patch_88">
    <path clip-path="url(#p5956a8187d)" d="M 330.970909 252 
L 334.014545 252 
L 334.014545 251.020871 
L 330.970909 251.020871 
z
" style="fill:#1f77b4;"/>
   </g>
   <g id="patch_89">
    <path clip-path="url(#p5956a8187d)" d="M 334.014545 252 
L 337.058182 252 
L 337.058182 251.082067 
L 334.014545 251.082067 
z
" style="fill:#1f77b4;"/>
   </g>
   <g id="patch_90">
    <path clip-path="url(#p5956a8187d)" d="M 337.058182 252 
L 340.101818 252 
L 340.101818 251.510436 
L 337.058182 251.510436 
z
" style="fill:#1f77b4;"/>
   </g>
   <g id="patch_91">
    <path clip-path="url(#p5956a8187d)" d="M 340.101818 252 
L 343.145455 252 
L 343.145455 251.694022 
L 340.101818 251.694022 
z
" style="fill:#1f77b4;"/>
   </g>
   <g id="patch_92">
    <path clip-path="url(#p5956a8187d)" d="M 343.145455 252 
L 346.189091 252 
L 346.189091 251.388045 
L 343.145455 251.388045 
z
" style="fill:#1f77b4;"/>
   </g>
   <g id="patch_93">
    <path clip-path="url(#p5956a8187d)" d="M 346.189091 252 
L 349.232727 252 
L 349.232727 251.694022 
L 346.189091 251.694022 
z
" style="fill:#1f77b4;"/>
   </g>
   <g id="patch_94">
    <path clip-path="url(#p5956a8187d)" d="M 349.232727 252 
L 352.276364 252 
L 352.276364 252 
L 349.232727 252 
z
" style="fill:#1f77b4;"/>
   </g>
   <g id="patch_95">
    <path clip-path="url(#p5956a8187d)" d="M 352.276364 252 
L 355.32 252 
L 355.32 251.816413 
L 352.276364 251.816413 
z
" style="fill:#1f77b4;"/>
   </g>
   <g id="patch_96">
    <path clip-path="url(#p5956a8187d)" d="M 355.32 252 
L 358.363636 252 
L 358.363636 251.755218 
L 355.32 251.755218 
z
" style="fill:#1f77b4;"/>
   </g>
   <g id="patch_97">
    <path clip-path="url(#p5956a8187d)" d="M 358.363636 252 
L 361.407273 252 
L 361.407273 252 
L 358.363636 252 
z
" style="fill:#1f77b4;"/>
   </g>
   <g id="patch_98">
    <path clip-path="url(#p5956a8187d)" d="M 361.407273 252 
L 364.450909 252 
L 364.450909 252 
L 361.407273 252 
z
" style="fill:#1f77b4;"/>
   </g>
   <g id="patch_99">
    <path clip-path="url(#p5956a8187d)" d="M 364.450909 252 
L 367.494545 252 
L 367.494545 251.938804 
L 364.450909 251.938804 
z
" style="fill:#1f77b4;"/>
   </g>
   <g id="patch_100">
    <path clip-path="url(#p5956a8187d)" d="M 367.494545 252 
L 370.538182 252 
L 370.538182 252 
L 367.494545 252 
z
" style="fill:#1f77b4;"/>
   </g>
   <g id="patch_101">
    <path clip-path="url(#p5956a8187d)" d="M 370.538182 252 
L 373.581818 252 
L 373.581818 251.938804 
L 370.538182 251.938804 
z
" style="fill:#1f77b4;"/>
   </g>
   <g id="text_1">
    <!-- Unimodal Distribution -->
    <defs>
     <path d="M 8.6875 72.90625 
L 18.609375 72.90625 
L 18.609375 28.609375 
Q 18.609375 16.890625 22.84375 11.734375 
Q 27.09375 6.59375 36.625 6.59375 
Q 46.09375 6.59375 50.34375 11.734375 
Q 54.59375 16.890625 54.59375 28.609375 
L 54.59375 72.90625 
L 64.5 72.90625 
L 64.5 27.390625 
Q 64.5 13.140625 57.4375 5.859375 
Q 50.390625 -1.421875 36.625 -1.421875 
Q 22.796875 -1.421875 15.734375 5.859375 
Q 8.6875 13.140625 8.6875 27.390625 
z
" id="DejaVuSans-55"/>
     <path d="M 54.890625 33.015625 
L 54.890625 0 
L 45.90625 0 
L 45.90625 32.71875 
Q 45.90625 40.484375 42.875 44.328125 
Q 39.84375 48.1875 33.796875 48.1875 
Q 26.515625 48.1875 22.3125 43.546875 
Q 18.109375 38.921875 18.109375 30.90625 
L 18.109375 0 
L 9.078125 0 
L 9.078125 54.6875 
L 18.109375 54.6875 
L 18.109375 46.1875 
Q 21.34375 51.125 25.703125 53.5625 
Q 30.078125 56 35.796875 56 
Q 45.21875 56 50.046875 50.171875 
Q 54.890625 44.34375 54.890625 33.015625 
z
" id="DejaVuSans-6e"/>
     <path d="M 9.421875 54.6875 
L 18.40625 54.6875 
L 18.40625 0 
L 9.421875 0 
z
M 9.421875 75.984375 
L 18.40625 75.984375 
L 18.40625 64.59375 
L 9.421875 64.59375 
z
" id="DejaVuSans-69"/>
     <path d="M 52 44.1875 
Q 55.375 50.25 60.0625 53.125 
Q 64.75 56 71.09375 56 
Q 79.640625 56 84.28125 50.015625 
Q 88.921875 44.046875 88.921875 33.015625 
L 88.921875 0 
L 79.890625 0 
L 79.890625 32.71875 
Q 79.890625 40.578125 77.09375 44.375 
Q 74.3125 48.1875 68.609375 48.1875 
Q 61.625 48.1875 57.5625 43.546875 
Q 53.515625 38.921875 53.515625 30.90625 
L 53.515625 0 
L 44.484375 0 
L 44.484375 32.71875 
Q 44.484375 40.625 41.703125 44.40625 
Q 38.921875 48.1875 33.109375 48.1875 
Q 26.21875 48.1875 22.15625 43.53125 
Q 18.109375 38.875 18.109375 30.90625 
L 18.109375 0 
L 9.078125 0 
L 9.078125 54.6875 
L 18.109375 54.6875 
L 18.109375 46.1875 
Q 21.1875 51.21875 25.484375 53.609375 
Q 29.78125 56 35.6875 56 
Q 41.65625 56 45.828125 52.96875 
Q 50 49.953125 52 44.1875 
z
" id="DejaVuSans-6d"/>
     <path d="M 30.609375 48.390625 
Q 23.390625 48.390625 19.1875 42.75 
Q 14.984375 37.109375 14.984375 27.296875 
Q 14.984375 17.484375 19.15625 11.84375 
Q 23.34375 6.203125 30.609375 6.203125 
Q 37.796875 6.203125 41.984375 11.859375 
Q 46.1875 17.53125 46.1875 27.296875 
Q 46.1875 37.015625 41.984375 42.703125 
Q 37.796875 48.390625 30.609375 48.390625 
z
M 30.609375 56 
Q 42.328125 56 49.015625 48.375 
Q 55.71875 40.765625 55.71875 27.296875 
Q 55.71875 13.875 49.015625 6.21875 
Q 42.328125 -1.421875 30.609375 -1.421875 
Q 18.84375 -1.421875 12.171875 6.21875 
Q 5.515625 13.875 5.515625 27.296875 
Q 5.515625 40.765625 12.171875 48.375 
Q 18.84375 56 30.609375 56 
z
" id="DejaVuSans-6f"/>
     <path d="M 45.40625 46.390625 
L 45.40625 75.984375 
L 54.390625 75.984375 
L 54.390625 0 
L 45.40625 0 
L 45.40625 8.203125 
Q 42.578125 3.328125 38.25 0.953125 
Q 33.9375 -1.421875 27.875 -1.421875 
Q 17.96875 -1.421875 11.734375 6.484375 
Q 5.515625 14.40625 5.515625 27.296875 
Q 5.515625 40.1875 11.734375 48.09375 
Q 17.96875 56 27.875 56 
Q 33.9375 56 38.25 53.625 
Q 42.578125 51.265625 45.40625 46.390625 
z
M 14.796875 27.296875 
Q 14.796875 17.390625 18.875 11.75 
Q 22.953125 6.109375 30.078125 6.109375 
Q 37.203125 6.109375 41.296875 11.75 
Q 45.40625 17.390625 45.40625 27.296875 
Q 45.40625 37.203125 41.296875 42.84375 
Q 37.203125 48.484375 30.078125 48.484375 
Q 22.953125 48.484375 18.875 42.84375 
Q 14.796875 37.203125 14.796875 27.296875 
z
" id="DejaVuSans-64"/>
     <path d="M 34.28125 27.484375 
Q 23.390625 27.484375 19.1875 25 
Q 14.984375 22.515625 14.984375 16.5 
Q 14.984375 11.71875 18.140625 8.90625 
Q 21.296875 6.109375 26.703125 6.109375 
Q 34.1875 6.109375 38.703125 11.40625 
Q 43.21875 16.703125 43.21875 25.484375 
L 43.21875 27.484375 
z
M 52.203125 31.203125 
L 52.203125 0 
L 43.21875 0 
L 43.21875 8.296875 
Q 40.140625 3.328125 35.546875 0.953125 
Q 30.953125 -1.421875 24.3125 -1.421875 
Q 15.921875 -1.421875 10.953125 3.296875 
Q 6 8.015625 6 15.921875 
Q 6 25.140625 12.171875 29.828125 
Q 18.359375 34.515625 30.609375 34.515625 
L 43.21875 34.515625 
L 43.21875 35.40625 
Q 43.21875 41.609375 39.140625 45 
Q 35.0625 48.390625 27.6875 48.390625 
Q 23 48.390625 18.546875 47.265625 
Q 14.109375 46.140625 10.015625 43.890625 
L 10.015625 52.203125 
Q 14.9375 54.109375 19.578125 55.046875 
Q 24.21875 56 28.609375 56 
Q 40.484375 56 46.34375 49.84375 
Q 52.203125 43.703125 52.203125 31.203125 
z
" id="DejaVuSans-61"/>
     <path d="M 9.421875 75.984375 
L 18.40625 75.984375 
L 18.40625 0 
L 9.421875 0 
z
" id="DejaVuSans-6c"/>
     <path id="DejaVuSans-20"/>
     <path d="M 19.671875 64.796875 
L 19.671875 8.109375 
L 31.59375 8.109375 
Q 46.6875 8.109375 53.6875 14.9375 
Q 60.6875 21.78125 60.6875 36.53125 
Q 60.6875 51.171875 53.6875 57.984375 
Q 46.6875 64.796875 31.59375 64.796875 
z
M 9.8125 72.90625 
L 30.078125 72.90625 
Q 51.265625 72.90625 61.171875 64.09375 
Q 71.09375 55.28125 71.09375 36.53125 
Q 71.09375 17.671875 61.125 8.828125 
Q 51.171875 0 30.078125 0 
L 9.8125 0 
z
" id="DejaVuSans-44"/>
     <path d="M 44.28125 53.078125 
L 44.28125 44.578125 
Q 40.484375 46.53125 36.375 47.5 
Q 32.28125 48.484375 27.875 48.484375 
Q 21.1875 48.484375 17.84375 46.4375 
Q 14.5 44.390625 14.5 40.28125 
Q 14.5 37.15625 16.890625 35.375 
Q 19.28125 33.59375 26.515625 31.984375 
L 29.59375 31.296875 
Q 39.15625 29.25 43.1875 25.515625 
Q 47.21875 21.78125 47.21875 15.09375 
Q 47.21875 7.46875 41.1875 3.015625 
Q 35.15625 -1.421875 24.609375 -1.421875 
Q 20.21875 -1.421875 15.453125 -0.5625 
Q 10.6875 0.296875 5.421875 2 
L 5.421875 11.28125 
Q 10.40625 8.6875 15.234375 7.390625 
Q 20.0625 6.109375 24.8125 6.109375 
Q 31.15625 6.109375 34.5625 8.28125 
Q 37.984375 10.453125 37.984375 14.40625 
Q 37.984375 18.0625 35.515625 20.015625 
Q 33.0625 21.96875 24.703125 23.78125 
L 21.578125 24.515625 
Q 13.234375 26.265625 9.515625 29.90625 
Q 5.8125 33.546875 5.8125 39.890625 
Q 5.8125 47.609375 11.28125 51.796875 
Q 16.75 56 26.8125 56 
Q 31.78125 56 36.171875 55.265625 
Q 40.578125 54.546875 44.28125 53.078125 
z
" id="DejaVuSans-73"/>
     <path d="M 18.3125 70.21875 
L 18.3125 54.6875 
L 36.8125 54.6875 
L 36.8125 47.703125 
L 18.3125 47.703125 
L 18.3125 18.015625 
Q 18.3125 11.328125 20.140625 9.421875 
Q 21.96875 7.515625 27.59375 7.515625 
L 36.8125 7.515625 
L 36.8125 0 
L 27.59375 0 
Q 17.1875 0 13.234375 3.875 
Q 9.28125 7.765625 9.28125 18.015625 
L 9.28125 47.703125 
L 2.6875 47.703125 
L 2.6875 54.6875 
L 9.28125 54.6875 
L 9.28125 70.21875 
z
" id="DejaVuSans-74"/>
     <path d="M 41.109375 46.296875 
Q 39.59375 47.171875 37.8125 47.578125 
Q 36.03125 48 33.890625 48 
Q 26.265625 48 22.1875 43.046875 
Q 18.109375 38.09375 18.109375 28.8125 
L 18.109375 0 
L 9.078125 0 
L 9.078125 54.6875 
L 18.109375 54.6875 
L 18.109375 46.1875 
Q 20.953125 51.171875 25.484375 53.578125 
Q 30.03125 56 36.53125 56 
Q 37.453125 56 38.578125 55.875 
Q 39.703125 55.765625 41.0625 55.515625 
z
" id="DejaVuSans-72"/>
     <path d="M 48.6875 27.296875 
Q 48.6875 37.203125 44.609375 42.84375 
Q 40.53125 48.484375 33.40625 48.484375 
Q 26.265625 48.484375 22.1875 42.84375 
Q 18.109375 37.203125 18.109375 27.296875 
Q 18.109375 17.390625 22.1875 11.75 
Q 26.265625 6.109375 33.40625 6.109375 
Q 40.53125 6.109375 44.609375 11.75 
Q 48.6875 17.390625 48.6875 27.296875 
z
M 18.109375 46.390625 
Q 20.953125 51.265625 25.265625 53.625 
Q 29.59375 56 35.59375 56 
Q 45.5625 56 51.78125 48.09375 
Q 58.015625 40.1875 58.015625 27.296875 
Q 58.015625 14.40625 51.78125 6.484375 
Q 45.5625 -1.421875 35.59375 -1.421875 
Q 29.59375 -1.421875 25.265625 0.953125 
Q 20.953125 3.328125 18.109375 8.203125 
L 18.109375 0 
L 9.078125 0 
L 9.078125 75.984375 
L 18.109375 75.984375 
z
" id="DejaVuSans-62"/>
     <path d="M 8.5 21.578125 
L 8.5 54.6875 
L 17.484375 54.6875 
L 17.484375 21.921875 
Q 17.484375 14.15625 20.5 10.265625 
Q 23.53125 6.390625 29.59375 6.390625 
Q 36.859375 6.390625 41.078125 11.03125 
Q 45.3125 15.671875 45.3125 23.6875 
L 45.3125 54.6875 
L 54.296875 54.6875 
L 54.296875 0 
L 45.3125 0 
L 45.3125 8.40625 
Q 42.046875 3.421875 37.71875 1 
Q 33.40625 -1.421875 27.6875 -1.421875 
Q 18.265625 -1.421875 13.375 4.4375 
Q 8.5 10.296875 8.5 21.578125 
z
M 31.109375 56 
z
" id="DejaVuSans-75"/>
    </defs>
    <g transform="translate(155.961563 28.56)scale(0.12 -0.12)">
     <use xlink:href="#DejaVuSans-55"/>
     <use x="73.193359" xlink:href="#DejaVuSans-6e"/>
     <use x="136.572266" xlink:href="#DejaVuSans-69"/>
     <use x="164.355469" xlink:href="#DejaVuSans-6d"/>
     <use x="261.767578" xlink:href="#DejaVuSans-6f"/>
     <use x="322.949219" xlink:href="#DejaVuSans-64"/>
     <use x="386.425781" xlink:href="#DejaVuSans-61"/>
     <use x="447.705078" xlink:href="#DejaVuSans-6c"/>
     <use x="475.488281" xlink:href="#DejaVuSans-20"/>
     <use x="507.275391" xlink:href="#DejaVuSans-44"/>
     <use x="584.277344" xlink:href="#DejaVuSans-69"/>
     <use x="612.060547" xlink:href="#DejaVuSans-73"/>
     <use x="664.160156" xlink:href="#DejaVuSans-74"/>
     <use x="703.369141" xlink:href="#DejaVuSans-72"/>
     <use x="744.482422" xlink:href="#DejaVuSans-69"/>
     <use x="772.265625" xlink:href="#DejaVuSans-62"/>
     <use x="835.742188" xlink:href="#DejaVuSans-75"/>
     <use x="899.121094" xlink:href="#DejaVuSans-74"/>
     <use x="938.330078" xlink:href="#DejaVuSans-69"/>
     <use x="966.113281" xlink:href="#DejaVuSans-6f"/>
     <use x="1027.294922" xlink:href="#DejaVuSans-6e"/>
    </g>
   </g>
  </g>
 </g>
 <defs>
  <clipPath id="p5956a8187d">
   <rect height="217.44" width="334.8" x="54" y="34.56"/>
  </clipPath>
 </defs>
</svg>
